<svg xmlns="http://www.w3.org/2000/svg" width="512" height="512" viewBox="0 0 512 512" fill="none">
    <path fill-rule="evenodd" clip-rule="evenodd" d="M408.056 327.995C403.62 332.993 398.723 337.573 393.432 341.668C414.681 366.693 427.5 399.099 427.5 434.5C427.5 440.023 431.977 444.5 437.5 444.5C443.023 444.5 447.5 440.023 447.5 434.5C447.5 393.818 432.642 356.606 408.056 327.995ZM221.92 271.093C134.205 274.035 64 346.069 64 434.5C64 440.023 68.4772 444.5 74 444.5C79.5228 444.5 84 440.023 84 434.5C84 355.575 147.716 291.532 226.516 291.003C224.376 284.614 222.823 277.956 221.92 271.093Z" fill="black"/>
    <path fill-rule="evenodd" clip-rule="evenodd" d="M344.897 151.327C344.965 149.893 345 148.451 345 147C345 97.8467 305.153 58 256 58C206.847 58 167 97.8467 167 147C167 185.017 190.836 217.466 224.379 230.219C222.708 236.704 221.629 243.428 221.205 250.328C178.068 235.808 147 195.032 147 147C147 86.801 195.801 38 256 38C316.199 38 365 86.801 365 147C365 150.174 364.864 153.317 364.598 156.423C358.287 154.126 351.699 152.406 344.897 151.327Z" fill="black"/>
    <path fill-rule="evenodd" clip-rule="evenodd" d="M328 364C387.094 364 435 316.094 435 257C435 197.906 387.094 150 328 150C268.906 150 221 197.906 221 257C221 316.094 268.906 364 328 364ZM337.696 214.56C337.667 209.037 333.167 204.583 327.645 204.611C322.122 204.639 317.668 209.139 317.696 214.662L317.859 246.544H285.762C280.239 246.544 275.762 251.021 275.762 256.544C275.762 262.067 280.239 266.544 285.762 266.544H317.961L318.124 298.529C318.152 304.052 322.652 308.506 328.175 308.478C333.698 308.449 338.152 303.949 338.124 298.427L337.961 266.544H369.629C375.152 266.544 379.629 262.067 379.629 256.544C379.629 251.021 375.152 246.544 369.629 246.544H337.859L337.696 214.56Z" fill="black"/>
</svg>