<svg xmlns="http://www.w3.org/2000/svg" width="64" height="64" viewBox="0 0 64 64" fill="none">
    <path d="M18 8.74662V14C18 14.5523 18.4477 15 19 15H28.3155C29.0745 15 29.5568 14.1875 29.1934 13.5212L27.2175 9.8988C27.0793 9.6454 26.8383 9.46408 26.5566 9.40146L19.2169 7.77043C18.5924 7.63165 18 8.10687 18 8.74662Z" fill="white"/>
    <path fill-rule="evenodd" clip-rule="evenodd" d="M17 8.74654C17 7.46704 18.1848 6.5166 19.4339 6.79417L26.7735 8.42519C27.337 8.55043 27.819 8.91306 28.0954 9.41986L30.0712 13.0422C30.7982 14.375 29.8336 15.9999 28.3155 15.9999H19C17.8954 15.9999 17 15.1045 17 13.9999V8.74654ZM26.3396 10.3776L19 8.74654V13.9999H28.3155L26.3396 10.3776Z" fill="black"/>
    <path d="M29.0099 7.81671L25 14.4999H43.5L30.3396 7.44972C29.8695 7.19784 29.2844 7.35933 29.0099 7.81671Z" fill="white"/>
    <path fill-rule="evenodd" clip-rule="evenodd" d="M28.1524 7.30224C28.7013 6.38748 29.8715 6.06451 30.8119 6.56827L43.9722 13.6185C44.3764 13.835 44.5815 14.2987 44.4699 14.7434C44.3583 15.1881 43.9585 15.4999 43.5 15.4999H25C24.6397 15.4999 24.3073 15.3062 24.1298 14.9926C23.9523 14.6791 23.9571 14.2944 24.1425 13.9855L28.1524 7.30224ZM39.5157 13.4999L29.8674 8.33123L26.7662 13.4999H39.5157Z" fill="black"/>
    <path d="M11 20.5V16C11 15.4477 11.4477 15 12 15H51.5C52.0523 15 52.5 15.4477 52.5 16V20.5C52.5 21.0523 52.0523 21.5 51.5 21.5H50H13H12C11.4477 21.5 11 21.0523 11 20.5Z" fill="#7BE8B4"/>
    <path d="M13 22L15.96 57H47.04L50 22V21.5H13V22Z" fill="#7BE8B4"/>
    <path fill-rule="evenodd" clip-rule="evenodd" d="M10 16C10 14.8954 10.8954 14 12 14H51.5C52.6046 14 53.5 14.8954 53.5 16V20.5C53.5 21.6046 52.6046 22.5 51.5 22.5H50.9613L48.0364 57.0843C47.9927 57.602 47.5596 58 47.04 58H15.96C15.4404 58 15.0073 57.602 14.9636 57.0843L12.0387 22.5H12C10.8954 22.5 10 21.6046 10 20.5V16ZM14.0459 22.5L16.879 56H46.121L48.9541 22.5H14.0459ZM51.5 16H12V20.5H51.5V16Z" fill="black"/>
</svg>